<svg width="16" height="16" viewBox="0 0 16 16" fill="none" xmlns="http://www.w3.org/2000/svg">
<path d="M0.649942 5.52552C0.561155 5.5551 0.482454 5.60901 0.42279 5.68111C0.363125 5.75321 0.324893 5.8406 0.312443 5.93336C0.299992 6.02611 0.313823 6.1205 0.352361 6.20578C0.3909 6.29106 0.452599 6.36381 0.530441 6.41576L4.95198 8.85316C5.03439 8.89857 5.12794 8.91981 5.22188 8.91443C5.31582 8.90905 5.40633 8.87728 5.48302 8.82276L10.1803 5.47319C10.4073 5.32116 10.6788 5.59269 10.5268 5.81967L7.17724 10.517C7.12272 10.5937 7.09095 10.6842 7.08557 10.7781C7.08019 10.8721 7.10143 10.9656 7.14684 11.048L9.58424 15.4696C9.63619 15.5474 9.70894 15.6091 9.79422 15.6476C9.8795 15.6862 9.97389 15.7 10.0666 15.6876C10.1594 15.6751 10.2468 15.6369 10.3189 15.5772C10.391 15.5175 10.4449 15.4388 10.4745 15.3501L15.0707 1.56148C15.0999 1.47343 15.1041 1.37899 15.0828 1.28871C15.0614 1.19843 15.0153 1.11586 14.9497 1.05026C14.8841 0.984661 14.8016 0.938605 14.7113 0.917247C14.621 0.895888 14.5266 0.900069 14.4385 0.929324L0.649942 5.52552Z" fill="white"/>
</svg>
